<svg xmlns="http://www.w3.org/2000/svg" width="2000" height="2000" viewBox="0 0 2000 2000">
  <rect width="2000" height="2000" fill="#080808"/>
  <defs>
    <radialGradient id="glow" cx="50%" cy="50%" r="42%">
      <stop offset="0%" stop-color="#B8963E" stop-opacity="0.18"/>
      <stop offset="55%" stop-color="#B8963E" stop-opacity="0.05"/>
      <stop offset="100%" stop-color="#080808" stop-opacity="0"/>
    </radialGradient>
  </defs>
  <rect width="2000" height="2000" fill="url(#glow)"/>

  <g id="lockup" transform="translate(1000 1000)">
    <g transform="translate(0 -255) scale(4.2) translate(-100 -100)" aria-hidden="true">
      <line x1="15" y1="100" x2="185" y2="100" stroke="#B8963E" stroke-width="2.5"/>
      <line x1="100" y1="15" x2="100" y2="185" stroke="#B8963E" stroke-width="2.5"/>
      <line x1="15" y1="93" x2="15" y2="107" stroke="#B8963E" stroke-width="4"/>
      <line x1="185" y1="93" x2="185" y2="107" stroke="#B8963E" stroke-width="4"/>
      <line x1="93" y1="15" x2="107" y2="15" stroke="#B8963E" stroke-width="4"/>
      <line x1="93" y1="185" x2="107" y2="185" stroke="#B8963E" stroke-width="4"/>
      <path d="M 132.8 77.1 A 40 40 0 1 0 132.8 122.9" fill="none" stroke="#B8963E" stroke-width="5" stroke-linecap="butt"/>
      <circle cx="100" cy="100" r="4" fill="#B8963E"/>
    </g>

    <g transform="translate(0 445)">
      <text y="0" text-anchor="middle" font-family="Arial, Helvetica, sans-serif" font-size="132" font-weight="400" fill="#EEEEE8" letter-spacing="36">CALIBER</text>
      <line x1="-340" y1="36" x2="340" y2="36" stroke="#B8963E" stroke-width="2.5" opacity="0.9"/>
      <text y="92" text-anchor="middle" font-family="Arial, Helvetica, sans-serif" font-size="40" fill="#B8963E" letter-spacing="22">CAR SERVICE</text>
      <text y="158" text-anchor="middle" font-family="Arial, Helvetica, sans-serif" font-size="34" fill="#55554C" letter-spacing="4">Executive Black Car &#183; Long Island &amp; Tri-State</text>
    </g>
  </g>
</svg>
